<svg width="1098" height="217" viewBox="0 0 1098 217" fill="none" xmlns="http://www.w3.org/2000/svg">
<path d="M78.6594 158.8C29.7594 158.8 0.0593753 128.5 0.0593753 79.9C0.0593753 32.2 31.2594 0.999988 80.1594 0.999988C122.159 0.999988 148.259 23.8 154.259 60.4H110.159C106.559 45.1 96.0594 35.5 79.5594 35.5C57.3594 35.5 43.2594 53.8 43.2594 79.9C43.2594 106.3 57.3594 124.3 79.5594 124.3C96.0594 124.3 107.159 114.4 110.159 98.8H154.559C148.559 135.7 120.659 158.8 78.6594 158.8ZM263.56 2.8H270.76V41.2H253.96C228.76 41.2 219.16 58 219.16 81.4V157H176.86V2.8H215.26L219.16 25.9C227.56 12.1 239.56 2.8 263.56 2.8ZM432.845 121.3H437.645V157H416.045C394.145 157 387.245 146.5 387.545 131.8C376.745 148.9 361.145 158.8 337.145 158.8C303.845 158.8 279.845 142.9 279.845 113.5C279.845 80.8 304.445 62.2 350.645 62.2H381.245V54.7C381.245 40.9 371.345 31.9 353.645 31.9C337.145 31.9 326.045 39.4 324.245 50.8H283.445C286.445 20.8 314.045 0.999988 354.845 0.999988C398.045 0.999988 422.945 20.2 422.945 57.1V111.7C422.945 119.8 426.245 121.3 432.845 121.3ZM381.245 93.4V90.4H350.345C332.645 90.4 322.445 97.6 322.445 110.5C322.445 121.3 331.145 128.2 345.245 128.2C367.445 128.2 380.945 114.4 381.245 93.4ZM491.377 157.9L431.977 2.8H476.977L514.477 112.6L551.077 2.8H596.377L527.977 178.9C518.377 204.4 510.577 217 486.577 217H445.477V181.3H468.877C479.677 181.3 483.277 178.6 487.477 168.1L491.377 157.9ZM678.723 158.8C629.523 158.8 597.423 127.3 597.423 79.9C597.423 32.5 629.523 0.999988 678.723 0.999988C727.923 0.999988 760.023 32.5 760.023 79.9C760.023 127.6 727.923 158.8 678.723 158.8ZM678.723 124.3C702.423 124.3 717.123 106 717.123 79.9C717.123 53.8 702.423 35.5 678.723 35.5C655.023 35.5 640.623 53.8 640.623 79.9C640.623 106 655.023 124.3 678.723 124.3ZM871.805 0.999988C905.105 0.999988 933.605 18.7 933.605 71.5V157H891.305V75.7C891.305 49.6 881.405 35.8 860.105 35.8C838.205 35.8 825.605 51.4 825.605 78.1V157H783.305V2.8H820.205L824.105 22C834.005 10 848.105 0.999988 871.805 0.999988ZM953.059 105.7H993.259C994.759 119.2 1006.46 128.5 1027.16 128.5C1044.86 128.5 1055.66 122.8 1055.66 112C1055.66 99.4 1045.16 98.5 1020.26 95.2C984.259 91 956.359 82.9 956.359 51.1C956.359 20.5 983.059 0.399996 1022.66 0.699992C1064.06 0.699992 1092.56 19 1094.66 50.5H1054.16C1052.96 38.2 1041.26 30.7 1024.16 30.7C1007.66 30.7 996.859 36.7 996.859 46.6C996.859 58.3 1010.06 59.5 1032.26 62.2C1067.66 65.8 1097.06 73.9 1097.06 108.7C1097.06 139.3 1068.26 158.8 1026.86 158.8C983.959 158.8 954.859 138.7 953.059 105.7Z" fill="#1271FF"/>
</svg>
